<svg xmlns="http://www.w3.org/2000/svg" xmlns:xlink="http://www.w3.org/1999/xlink" width="500" zoomAndPan="magnify" viewBox="0 0 375 374.999991" height="500" preserveAspectRatio="xMidYMid meet" version="1.0"><defs><g/></defs><g fill="#1ce783" fill-opacity="1"><g transform="translate(46.300782, 228.586963)"><g><path d="M 46.921875 -92.390625 L 46.921875 -26.09375 C 46.921875 -17.0625 44.4375 -10.171875 39.46875 -5.421875 C 34.507812 -0.679688 27.398438 1.6875 18.140625 1.6875 C 15.679688 1.6875 13.253906 1.382812 10.859375 0.78125 C 8.472656 0.1875 6.457031 -0.535156 4.8125 -1.390625 C 3.175781 -2.253906 1.703125 -3.132812 0.390625 -4.03125 C -0.910156 -4.925781 -1.863281 -5.671875 -2.46875 -6.265625 L -3.46875 -7.171875 L 3.25 -24.75 C 7.65625 -20.570312 11.648438 -18.484375 15.234375 -18.484375 C 18.441406 -18.484375 21.015625 -19.546875 22.953125 -21.671875 C 24.898438 -23.796875 25.875 -27.0625 25.875 -31.46875 L 25.875 -92.390625 Z M 46.921875 -92.390625 "/></g></g></g><g fill="#1ce783" fill-opacity="1"><g transform="translate(98.815919, 228.586963)"><g><path d="M 77.71875 -92.390625 L 77.71875 -32.8125 C 77.71875 -21.46875 74.65625 -12.878906 68.53125 -7.046875 C 62.414062 -1.222656 53.457031 1.6875 41.65625 1.6875 C 29.863281 1.6875 20.90625 -1.222656 14.78125 -7.046875 C 8.65625 -12.878906 5.59375 -21.46875 5.59375 -32.8125 L 5.59375 -92.390625 L 26.65625 -92.390625 L 26.65625 -38.96875 C 26.65625 -31.5 27.828125 -26.304688 30.171875 -23.390625 C 32.523438 -20.484375 36.351562 -19.03125 41.65625 -19.03125 C 46.957031 -19.03125 50.785156 -20.484375 53.140625 -23.390625 C 55.492188 -26.304688 56.671875 -31.5 56.671875 -38.96875 L 56.671875 -92.390625 Z M 77.71875 -92.390625 "/></g></g></g><g fill="#1ce783" fill-opacity="1"><g transform="translate(182.123511, 228.586963)"><g><path d="M 27.765625 -92.390625 L 27.765625 -18.484375 L 59.578125 -18.484375 L 59.578125 0 L 6.71875 0 L 6.71875 -92.390625 Z M 27.765625 -92.390625 "/></g></g></g><g fill="#1ce783" fill-opacity="1"><g transform="translate(245.388002, 228.586963)"><g><path d="M 77.71875 -92.390625 L 77.71875 -32.8125 C 77.71875 -21.46875 74.65625 -12.878906 68.53125 -7.046875 C 62.414062 -1.222656 53.457031 1.6875 41.65625 1.6875 C 29.863281 1.6875 20.90625 -1.222656 14.78125 -7.046875 C 8.65625 -12.878906 5.59375 -21.46875 5.59375 -32.8125 L 5.59375 -92.390625 L 26.65625 -92.390625 L 26.65625 -38.96875 C 26.65625 -31.5 27.828125 -26.304688 30.171875 -23.390625 C 32.523438 -20.484375 36.351562 -19.03125 41.65625 -19.03125 C 46.957031 -19.03125 50.785156 -20.484375 53.140625 -23.390625 C 55.492188 -26.304688 56.671875 -31.5 56.671875 -38.96875 L 56.671875 -92.390625 Z M 77.71875 -92.390625 "/></g></g></g></svg>